<?xml version="1.0" encoding="UTF-8" standalone="no"?>
<!DOCTYPE svg PUBLIC "-//W3C//DTD SVG 1.1//EN"
 "http://www.w3.org/Graphics/SVG/1.1/DTD/svg11.dtd">
<!-- Generated by graphviz version 3.0.0 (20220226.1711)
 -->
<!-- Title: dependencies Pages: 1 -->
<svg width="316pt" height="174pt"
 viewBox="0.00 0.00 316.00 173.80" xmlns="http://www.w3.org/2000/svg" xmlns:xlink="http://www.w3.org/1999/xlink">
<g id="graph0" class="graph" transform="scale(1 1) rotate(0) translate(4 169.8)">
<title>dependencies</title>
<polygon fill="white" stroke="transparent" points="-4,4 -4,-169.8 312,-169.8 312,4 -4,4"/>
<text text-anchor="middle" x="154" y="-8.2" font-family="sans-serif" font-size="14.00">dependencies</text>
<g id="clust1" class="cluster">
<title>cluster_ProductsModule</title>
<polygon fill="none" stroke="black" stroke-dasharray="1,5" points="8,-32.8 8,-157.8 300,-157.8 300,-32.8 8,-32.8"/>
</g>
<g id="clust3" class="cluster">
<title>cluster_ProductsModule_imports</title>
<polygon fill="none" stroke="black" points="188,-40.8 188,-92.8 292,-92.8 292,-40.8 188,-40.8"/>
</g>
<g id="clust6" class="cluster">
<title>cluster_ProductsModule_providers</title>
<polygon fill="none" stroke="black" points="16,-40.8 16,-92.8 180,-92.8 180,-40.8 16,-40.8"/>
</g>
<!-- AuthModule -->
<g id="node1" class="node">
<title>AuthModule</title>
<polygon fill="#8dd3c7" stroke="black" points="283.55,-84.8 280.55,-88.8 259.55,-88.8 256.55,-84.8 196.45,-84.8 196.45,-48.8 283.55,-48.8 283.55,-84.8"/>
<text text-anchor="middle" x="240" y="-62.6" font-family="Times,serif" font-size="14.00">AuthModule</text>
</g>
<!-- ProductsModule -->
<g id="node2" class="node">
<title>ProductsModule</title>
<polygon fill="#8dd3c7" stroke="black" points="222.05,-149.8 219.05,-153.8 198.05,-153.8 195.05,-149.8 113.95,-149.8 113.95,-113.8 222.05,-113.8 222.05,-149.8"/>
<text text-anchor="middle" x="168" y="-127.6" font-family="Times,serif" font-size="14.00">ProductsModule</text>
</g>
<!-- AuthModule&#45;&gt;ProductsModule -->
<g id="edge1" class="edge">
<title>AuthModule&#45;&gt;ProductsModule</title>
<path fill="none" stroke="black" d="M209.25,-84.91C209.25,-84.91 209.25,-103.79 209.25,-103.79"/>
<polygon fill="black" stroke="black" points="205.75,-103.79 209.25,-113.79 212.75,-103.79 205.75,-103.79"/>
</g>
<!-- ProductsService -->
<g id="node3" class="node">
<title>ProductsService</title>
<ellipse fill="#fdb462" stroke="black" cx="98" cy="-66.8" rx="73.59" ry="18"/>
<text text-anchor="middle" x="98" y="-62.6" font-family="Times,serif" font-size="14.00">ProductsService</text>
</g>
<!-- ProductsService&#45;&gt;ProductsModule -->
<g id="edge2" class="edge">
<title>ProductsService&#45;&gt;ProductsModule</title>
<path fill="none" stroke="black" d="M142.76,-81.23C142.76,-81.23 142.76,-103.69 142.76,-103.69"/>
<polygon fill="black" stroke="black" points="139.26,-103.69 142.76,-113.69 146.26,-103.69 139.26,-103.69"/>
</g>
</g>
</svg>
